<svg width="12" height="12" viewBox="0 0 12 12" fill="none" xmlns="http://www.w3.org/2000/svg">
<path d="M6 11.1006C5.25163 11.1006 4.54622 10.9574 3.88379 10.6709C3.22493 10.3844 2.64307 9.98877 2.13818 9.48389C1.6333 8.979 1.23763 8.39714 0.951172 7.73828C0.664714 7.07585 0.521484 6.37044 0.521484 5.62207C0.521484 4.8737 0.664714 4.17008 0.951172 3.51123C1.23763 2.8488 1.63151 2.26514 2.13281 1.76025C2.6377 1.25537 3.21956 0.859701 3.87842 0.573242C4.54085 0.286784 5.24626 0.143555 5.99463 0.143555C6.743 0.143555 7.4484 0.286784 8.11084 0.573242C8.77327 0.859701 9.35693 1.25537 9.86182 1.76025C10.3667 2.26514 10.7624 2.8488 11.0488 3.51123C11.3353 4.17008 11.4785 4.8737 11.4785 5.62207C11.4785 6.37044 11.3353 7.07585 11.0488 7.73828C10.7624 8.39714 10.3667 8.979 9.86182 9.48389C9.35693 9.98877 8.77327 10.3844 8.11084 10.6709C7.45199 10.9574 6.74837 11.1006 6 11.1006ZM6 10.1875C6.63379 10.1875 7.2264 10.0693 7.77783 9.83301C8.32926 9.59668 8.81445 9.27083 9.2334 8.85547C9.65234 8.43652 9.97819 7.95133 10.2109 7.3999C10.4473 6.84847 10.5654 6.25586 10.5654 5.62207C10.5654 4.98828 10.4473 4.39567 10.2109 3.84424C9.97461 3.29281 9.64697 2.80762 9.22803 2.38867C8.81266 1.96973 8.32747 1.64388 7.77246 1.41113C7.22103 1.1748 6.62842 1.05664 5.99463 1.05664C5.36084 1.05664 4.76823 1.1748 4.2168 1.41113C3.66536 1.64388 3.18197 1.96973 2.7666 2.38867C2.35124 2.80762 2.02539 3.29281 1.78906 3.84424C1.55632 4.39567 1.43994 4.98828 1.43994 5.62207C1.43994 6.25586 1.55632 6.84847 1.78906 7.3999C2.02539 7.95133 2.35124 8.43652 2.7666 8.85547C3.18555 9.27083 3.67074 9.59668 4.22217 9.83301C4.7736 10.0693 5.36621 10.1875 6 10.1875ZM4.16309 7.89404C4.04492 7.89404 3.94287 7.85107 3.85693 7.76514C3.77458 7.6792 3.7334 7.57715 3.7334 7.45898C3.7334 7.34082 3.77637 7.24056 3.8623 7.1582L5.3877 5.62744L3.8623 4.09668C3.77637 4.01432 3.7334 3.91406 3.7334 3.7959C3.7334 3.67773 3.77458 3.57747 3.85693 3.49512C3.94287 3.41276 4.04492 3.37158 4.16309 3.37158C4.28483 3.37158 4.38509 3.41455 4.46387 3.50049L5.99463 5.02588L7.5415 3.49512C7.62744 3.4056 7.72591 3.36084 7.83691 3.36084C7.95508 3.36084 8.05534 3.40381 8.1377 3.48975C8.22363 3.5721 8.2666 3.67236 8.2666 3.79053C8.2666 3.90511 8.22363 4.00537 8.1377 4.09131L6.60693 5.62744L8.13232 7.15283C8.21826 7.23877 8.26123 7.34082 8.26123 7.45898C8.26123 7.57715 8.21826 7.6792 8.13232 7.76514C8.04997 7.85107 7.94971 7.89404 7.83154 7.89404C7.71338 7.89404 7.61133 7.84928 7.52539 7.75977L5.99463 6.23438L4.47461 7.75977C4.39225 7.84928 4.28841 7.89404 4.16309 7.89404Z" fill="#D33D3E"/>
</svg>
