<svg width="513" height="513" viewBox="0 0 513 513" fill="none" xmlns="http://www.w3.org/2000/svg">
<rect x="0.420898" y="0.840698" width="512" height="512" rx="256" fill="url(#paint0_linear_65_417)"/>
<g filter="url(#filter0_d_65_417)">
<path fill-rule="evenodd" clip-rule="evenodd" d="M147.693 211.918C136.168 202.814 127.99 194.999 123.186 188.957C130.897 189.292 142.027 191.315 156.167 195.287C185.163 203.432 223.818 218.908 265.041 239.911C306.263 260.915 341.504 283.092 365.137 301.763C376.661 310.867 384.839 318.682 389.643 324.724C381.932 324.389 370.802 322.366 356.663 318.394C349.434 316.363 341.604 313.877 333.284 310.963C326.867 320.059 318.877 327.965 309.709 334.286C323.686 339.595 336.761 343.965 348.55 347.276C364.134 351.654 378.241 354.406 389.531 354.739C395.134 354.905 400.93 354.511 406.169 352.874C411.442 351.227 417.709 347.781 421.251 340.829C424.793 333.877 423.898 326.781 422.131 321.547C420.375 316.347 417.288 311.426 413.86 306.991C406.954 298.053 396.436 288.258 383.734 278.223C358.132 257.996 321.093 234.802 278.66 213.181C236.227 191.561 195.692 175.228 164.28 166.405C148.695 162.027 134.589 159.276 123.298 158.942C117.695 158.776 111.9 159.17 106.66 160.807C101.387 162.454 95.1207 165.9 91.5785 172.852C88.0364 179.804 88.9312 186.9 90.6983 192.134C92.4541 197.334 95.5418 202.255 98.9692 206.69C105.875 215.628 116.393 225.423 129.095 235.458C138.707 243.052 149.932 251.065 162.449 259.255C162.429 258.453 162.418 257.648 162.418 256.841C162.418 246.208 164.184 235.989 167.437 226.458C160.193 221.442 153.582 216.571 147.693 211.918Z" fill="url(#paint1_linear_65_417)"/>
</g>
<g filter="url(#filter1_d_65_417)">
<path fill-rule="evenodd" clip-rule="evenodd" d="M145.405 412.595C145.403 412.597 145.398 412.564 145.391 412.493C145.402 412.558 145.406 412.594 145.405 412.595ZM163.497 364.798C155.592 379.944 150.251 392.331 147.481 401.413C155.448 396.246 165.882 387.699 178.263 375.925C188.813 365.892 200.454 353.828 212.774 340.112C222.346 345.14 232.891 348.566 244.053 350.033C227.975 368.467 212.681 384.594 198.937 397.664C185.052 410.868 172.232 421.452 161.44 428.076C156.113 431.345 150.482 434.153 144.931 435.528C139.618 436.843 131.444 437.506 124.326 432.141C117.207 426.777 115.591 418.737 115.391 413.268C115.182 407.552 116.329 401.365 118.003 395.343C121.396 383.144 128.036 367.904 136.901 350.917C154.745 316.728 182.967 272.9 217.291 227.352C251.614 181.803 285.965 142.593 313.911 116.017C327.796 102.813 340.616 92.2293 351.407 85.6057C356.734 82.3361 362.366 79.5283 367.917 78.1537C373.23 76.8383 381.403 76.1757 388.522 81.5402C395.641 86.9047 397.257 94.9439 397.457 100.414C397.666 106.129 396.519 112.316 394.845 118.338C391.452 130.537 384.812 145.778 375.947 162.764C367.173 179.575 355.89 198.716 342.606 219.246C338.166 209.082 331.981 199.855 324.429 191.943C334.221 176.315 342.613 161.795 349.351 148.884C357.256 133.737 362.596 121.351 365.367 112.269C357.4 117.435 346.965 125.983 334.585 137.756C308.161 162.885 274.897 200.755 241.25 245.406C207.603 290.057 180.368 332.471 163.497 364.798ZM375.514 107.196C375.533 107.193 375.543 107.191 375.544 107.19C375.545 107.189 375.512 107.192 375.442 107.205C375.473 107.202 375.497 107.199 375.514 107.196ZM367.457 101.188C367.445 101.123 367.442 101.088 367.443 101.086C367.444 101.085 367.45 101.117 367.457 101.188ZM137.406 406.476C137.336 406.489 137.303 406.493 137.304 406.491C137.305 406.489 137.34 406.483 137.406 406.476Z" fill="url(#paint2_linear_65_417)"/>
</g>
<path fill-rule="evenodd" clip-rule="evenodd" d="M133.694 239.027C135.271 228.068 138.28 217.573 142.527 207.736C144.168 209.097 145.891 210.492 147.696 211.918C153.586 216.571 160.196 221.442 167.44 226.458C164.187 235.988 162.422 246.208 162.422 256.84C162.422 257.647 162.432 258.452 162.452 259.255C151.88 252.337 142.23 245.546 133.694 239.027Z" fill="url(#paint3_linear_65_417)"/>
<path fill-rule="evenodd" clip-rule="evenodd" d="M363.084 320.119C357.507 329.5 350.727 338.083 342.956 345.655C332.672 342.583 321.513 338.77 309.71 334.287C318.878 327.966 326.868 320.06 333.285 310.964C341.605 313.878 349.435 316.364 356.664 318.395C358.878 319.017 361.019 319.591 363.084 320.119Z" fill="url(#paint4_linear_65_417)"/>
<path fill-rule="evenodd" clip-rule="evenodd" d="M220.83 375.653C210.498 372.561 200.732 368.159 191.726 362.638C198.452 355.76 205.501 348.225 212.788 340.112C222.36 345.14 232.905 348.566 244.067 350.034C236.098 359.171 228.321 367.741 220.83 375.653Z" fill="url(#paint5_linear_65_417)"/>
<path fill-rule="evenodd" clip-rule="evenodd" d="M340.275 165.493C348.116 172.694 355.026 180.892 360.807 189.885C355.272 199.255 349.184 209.081 342.606 219.248C338.166 209.083 331.981 199.856 324.429 191.945C330.218 182.706 335.517 173.854 340.275 165.493Z" fill="url(#paint6_linear_65_417)"/>
<defs>
<filter id="filter0_d_65_417" x="73.1475" y="144.907" width="366.535" height="227.867" filterUnits="userSpaceOnUse" color-interpolation-filters="sRGB">
<feFlood flood-opacity="0" result="BackgroundImageFix"/>
<feColorMatrix in="SourceAlpha" type="matrix" values="0 0 0 0 0 0 0 0 0 0 0 0 0 0 0 0 0 0 127 0" result="hardAlpha"/>
<feOffset dy="2"/>
<feGaussianBlur stdDeviation="8"/>
<feComposite in2="hardAlpha" operator="out"/>
<feColorMatrix type="matrix" values="0 0 0 0 0.0784314 0 0 0 0 0.0784314 0 0 0 0 0.0784314 0 0 0 0.1 0"/>
<feBlend mode="normal" in2="BackgroundImageFix" result="effect1_dropShadow_65_417"/>
<feBlend mode="normal" in="SourceGraphic" in2="effect1_dropShadow_65_417" result="shape"/>
</filter>
<filter id="filter1_d_65_417" x="99.3662" y="63.2313" width="314.115" height="391.219" filterUnits="userSpaceOnUse" color-interpolation-filters="sRGB">
<feFlood flood-opacity="0" result="BackgroundImageFix"/>
<feColorMatrix in="SourceAlpha" type="matrix" values="0 0 0 0 0 0 0 0 0 0 0 0 0 0 0 0 0 0 127 0" result="hardAlpha"/>
<feOffset dy="2"/>
<feGaussianBlur stdDeviation="8"/>
<feComposite in2="hardAlpha" operator="out"/>
<feColorMatrix type="matrix" values="0 0 0 0 0.0784314 0 0 0 0 0.0784314 0 0 0 0 0.0784314 0 0 0 0.1 0"/>
<feBlend mode="normal" in2="BackgroundImageFix" result="effect1_dropShadow_65_417"/>
<feBlend mode="normal" in="SourceGraphic" in2="effect1_dropShadow_65_417" result="shape"/>
</filter>
<linearGradient id="paint0_linear_65_417" x1="256.421" y1="0.840698" x2="256.421" y2="512.841" gradientUnits="userSpaceOnUse">
<stop stop-color="#313231"/>
<stop offset="1" stop-color="#111111"/>
</linearGradient>
<linearGradient id="paint1_linear_65_417" x1="540.182" y1="501.231" x2="75.4451" y2="83.4071" gradientUnits="userSpaceOnUse">
<stop stop-color="#44EDFF"/>
<stop offset="1" stop-color="#0038AF"/>
</linearGradient>
<linearGradient id="paint2_linear_65_417" x1="397.482" y1="77.2313" x2="-3.81091" y2="543.21" gradientUnits="userSpaceOnUse">
<stop stop-color="#0060F8"/>
<stop offset="1" stop-color="#00FAFF"/>
</linearGradient>
<linearGradient id="paint3_linear_65_417" x1="228.824" y1="253.924" x2="150.566" y2="237.534" gradientUnits="userSpaceOnUse">
<stop/>
<stop offset="1" stop-opacity="0"/>
</linearGradient>
<linearGradient id="paint4_linear_65_417" x1="257.983" y1="286.703" x2="347.369" y2="331.738" gradientUnits="userSpaceOnUse">
<stop/>
<stop offset="1" stop-opacity="0"/>
</linearGradient>
<linearGradient id="paint5_linear_65_417" x1="256.746" y1="280.36" x2="210.308" y2="367.426" gradientUnits="userSpaceOnUse">
<stop/>
<stop offset="1" stop-opacity="0"/>
</linearGradient>
<linearGradient id="paint6_linear_65_417" x1="274.12" y1="298.922" x2="342.635" y2="188.521" gradientUnits="userSpaceOnUse">
<stop/>
<stop offset="1" stop-opacity="0"/>
</linearGradient>
</defs>
</svg>
