<svg width="12" height="12" viewBox="0 0 12 12" fill="none" xmlns="http://www.w3.org/2000/svg">
<path d="M6 11.1006C5.25163 11.1006 4.54622 10.9574 3.88379 10.6709C3.22493 10.3844 2.64307 9.98877 2.13818 9.48389C1.6333 8.979 1.23763 8.39714 0.951172 7.73828C0.664714 7.07585 0.521484 6.37044 0.521484 5.62207C0.521484 4.8737 0.664714 4.17008 0.951172 3.51123C1.23763 2.8488 1.63151 2.26514 2.13281 1.76025C2.6377 1.25537 3.21956 0.859701 3.87842 0.573242C4.54085 0.286784 5.24626 0.143555 5.99463 0.143555C6.743 0.143555 7.4484 0.286784 8.11084 0.573242C8.77327 0.859701 9.35693 1.25537 9.86182 1.76025C10.3667 2.26514 10.7624 2.8488 11.0488 3.51123C11.3353 4.17008 11.4785 4.8737 11.4785 5.62207C11.4785 6.37044 11.3353 7.07585 11.0488 7.73828C10.7624 8.39714 10.3667 8.979 9.86182 9.48389C9.35693 9.98877 8.77327 10.3844 8.11084 10.6709C7.45199 10.9574 6.74837 11.1006 6 11.1006ZM6 10.1875C6.63379 10.1875 7.2264 10.0693 7.77783 9.83301C8.32926 9.59668 8.81445 9.27083 9.2334 8.85547C9.65234 8.43652 9.97819 7.95133 10.2109 7.3999C10.4473 6.84847 10.5654 6.25586 10.5654 5.62207C10.5654 4.98828 10.4473 4.39567 10.2109 3.84424C9.97461 3.29281 9.64697 2.80762 9.22803 2.38867C8.81266 1.96973 8.32747 1.64388 7.77246 1.41113C7.22103 1.1748 6.62842 1.05664 5.99463 1.05664C5.36084 1.05664 4.76823 1.1748 4.2168 1.41113C3.66536 1.64388 3.18197 1.96973 2.7666 2.38867C2.35124 2.80762 2.02539 3.29281 1.78906 3.84424C1.55632 4.39567 1.43994 4.98828 1.43994 5.62207C1.43994 6.25586 1.55632 6.84847 1.78906 7.3999C2.02539 7.95133 2.35124 8.43652 2.7666 8.85547C3.18555 9.27083 3.67074 9.59668 4.22217 9.83301C4.7736 10.0693 5.36621 10.1875 6 10.1875ZM5.40918 8.16797C5.31966 8.16797 5.2373 8.14827 5.16211 8.10889C5.09049 8.0695 5.02067 8.00684 4.95264 7.9209L3.64209 6.30957C3.55973 6.19857 3.51855 6.08757 3.51855 5.97656C3.51855 5.8584 3.55794 5.75814 3.63672 5.67578C3.71908 5.58984 3.81755 5.54688 3.93213 5.54688C4.00732 5.54688 4.07536 5.56299 4.13623 5.59521C4.20068 5.62386 4.26514 5.68115 4.32959 5.76709L5.3877 7.13672L7.6167 3.55957C7.71696 3.39844 7.84229 3.31787 7.99268 3.31787C8.10368 3.31787 8.20394 3.35368 8.29346 3.42529C8.38298 3.49691 8.42773 3.5918 8.42773 3.70996C8.42773 3.77083 8.41341 3.83171 8.38477 3.89258C8.3597 3.94987 8.33105 4.00358 8.29883 4.05371L5.84424 7.9209C5.73682 8.08561 5.5918 8.16797 5.40918 8.16797Z" fill="#00AF1E"/>
</svg>
