<svg xmlns="http://www.w3.org/2000/svg" xmlns:xlink="http://www.w3.org/1999/xlink" fill="none" version="1.1" width="30" height="30" viewBox="0 0 30 30"><defs><clipPath id="master_svg0_894_44864"><rect x="0" y="0" width="30" height="30" rx="0"/></clipPath><linearGradient x1="0.5" y1="0" x2="0.5" y2="1" id="master_svg1_151_93968"><stop offset="0%" stop-color="#7188B0" stop-opacity="1"/><stop offset="100%" stop-color="#4B6084" stop-opacity="1"/></linearGradient></defs><g style="mix-blend-mode:passthrough" clip-path="url(#master_svg0_894_44864)"><g style="mix-blend-mode:passthrough"><path d="M14.6435,3.010250376837158C11.66554,3.185100476837158,9.2131,5.608030476837158,9.0129,8.58049047683716C8.84356,11.209840476837158,10.35775,13.514400476837158,12.58749,14.496100476837158Q11.48268,14.726800476837159,10.42614,15.173700476837158Q8.31738,16.065600476837158,6.6915,17.691500476837156Q5.0656099999999995,19.317400476837157,4.173681,21.42610047683716Q3.25,23.610000476837158,3.25,26.000000476837158L3.25,26.750000476837158L26.75,26.750000476837158L26.75,26.000000476837158Q26.75,23.610000476837158,25.8263,21.42610047683716Q24.9344,19.317400476837157,23.3085,17.691500476837156Q21.6826,16.065600476837158,19.5739,15.173700476837158Q18.5158,14.726200476837159,17.409399999999998,14.495500476837158C19.5276,13.565300476837159,20.9998,11.450020476837159,20.9998,9.005120476837158C21.0249,5.558070476837158,18.122,2.810421476837158,14.6435,3.010250376837158ZM14.7314,4.507670476837158L14.7295,4.5077804768371585Q13.06129,4.606380476837158,11.84126,5.812840476837158Q10.621459999999999,7.019070476837158,10.509509999999999,8.681290476837159Q10.38289,10.647410476837159,11.71962,12.077240476837158Q13.04973,13.500000476837158,14.9939,13.500000476837158Q16.864,13.500000476837158,18.183799999999998,12.178890476837159Q19.4998,10.86146047683716,19.4998,9.00513047683716Q19.5139,7.060410476837158,18.1057,5.730760476837158Q16.6918,4.395740476837158,14.7314,4.507670476837158ZM4.77644,25.250000476837158L25.2236,25.250000476837158Q25.1041,23.569200476837157,24.4448,22.01050047683716Q23.6669,20.171200476837157,22.2478,18.75220047683716Q20.8288,17.33310047683716,18.9895,16.555200476837157Q17.085900000000002,15.750000476837158,15,15.750000476837158Q12.91415,15.750000476837158,11.01047,16.555200476837157Q9.17116,17.33310047683716,7.75216,18.75220047683716Q6.33315,20.171200476837157,5.55519,22.01050047683716Q4.89591,23.569200476837157,4.77644,25.250000476837158Z" fill-rule="evenodd" fill="url(#master_svg1_151_93968)" fill-opacity="1"/></g></g></svg>