<svg width="12" height="13" viewBox="0 0 12 13" fill="none" xmlns="http://www.w3.org/2000/svg">
<path id="Vector" d="M12 6.50001C12 9.77653 9.28236 12.5 6.00001 12.5C2.72353 12.5 0 9.77653 0 6.50001C0 3.21765 2.71765 0.5 5.99412 0.5C9.27653 0.5 12 3.21765 12 6.50001ZM7.82942 4.16471L5.31765 8.20001L4.12354 6.65884C3.97648 6.46471 3.84707 6.41177 3.67648 6.41177C3.41177 6.41177 3.20588 6.62942 3.20588 6.89413C3.20588 7.02942 3.25883 7.15884 3.34707 7.27648L4.82354 9.08825C4.97648 9.29413 5.14118 9.37648 5.34118 9.37648C5.54118 9.37648 5.71177 9.28237 5.83531 9.08825L8.60001 4.7353C8.6706 4.61177 8.74707 4.47648 8.74707 4.34707C8.74707 4.0706 8.50589 3.89412 8.24707 3.89412C8.09413 3.89412 7.94119 3.98824 7.82942 4.16471Z" fill="#00AF1E"/>
</svg>
